<svg xmlns="http://www.w3.org/2000/svg" viewBox="0 0 1700 520" width="1700" height="520" role="img" aria-label="ODEB LONODJI — Organisation pour le Développement et l’Émergence Bedjonde"><rect width="1700" height="520" fill="#173b2d"/><g transform="translate(60,36) scale(0.875)"><defs><linearGradient id="soleil" x1="0" y1="1" x2="0" y2="0"><stop offset="0" stop-color="#f2c94c"/><stop offset="1" stop-color="#b6cf45"/></linearGradient><radialGradient id="halo" cx="0.5" cy="0.4" r="0.6"><stop offset="0" stop-color="#2f6b4a"/><stop offset="1" stop-color="#173b2d"/></radialGradient><g id="pied"><path d="M1,-30 C14,-30 24,-22 23,-10 C22,3 17,16 15,27 C13,37 7,42 1,42 C-6,42 -11,36 -11,27 C-11,15 -7,4 -9,-6 C-11,-16 -23,-16 -22,-22 C-21,-28 -10,-30 1,-30 Z"/><circle cx="-13" cy="-38" r="7"/><circle cx="-1" cy="-43" r="5.2"/><circle cx="9" cy="-42" r="4.6"/><circle cx="17" cy="-38" r="4"/><circle cx="23" cy="-32" r="3.4"/></g></defs><line x1="104" y1="188" x2="408" y2="188" stroke="#fff" stroke-opacity=".55" stroke-width="6" stroke-linecap="round"/><path d="M190,188 A66,66 0 0 1 322,188 Z" fill="#fff"/><line x1="334.0" y1="162.7" x2="351.1" y2="157.1" stroke="#fff" stroke-width="7" stroke-linecap="round"/><line x1="316.9" y1="133.1" x2="330.3" y2="121.1" stroke="#fff" stroke-width="7" stroke-linecap="round"/><line x1="289.4" y1="113.1" x2="296.7" y2="96.6" stroke="#fff" stroke-width="7" stroke-linecap="round"/><line x1="256.0" y1="106.0" x2="256.0" y2="88.0" stroke="#fff" stroke-width="7" stroke-linecap="round"/><line x1="222.6" y1="113.1" x2="215.3" y2="96.6" stroke="#fff" stroke-width="7" stroke-linecap="round"/><line x1="195.1" y1="133.1" x2="181.7" y2="121.1" stroke="#fff" stroke-width="7" stroke-linecap="round"/><line x1="178.0" y1="162.7" x2="160.9" y2="157.1" stroke="#fff" stroke-width="7" stroke-linecap="round"/><use href="#pied" transform="translate(168,404) rotate(-22) scale(-1.5,1.5)" fill="#fff" opacity="0.62"/><use href="#pied" transform="translate(292,330) rotate(-12) scale(1.22)" fill="#fff" opacity="0.82"/><use href="#pied" transform="translate(228,258) rotate(-6) scale(-0.95,0.95)" fill="#fff" opacity="1.0"/></g><text x="560" y="206" font-family="DM Sans, Helvetica, Arial, sans-serif" font-weight="700" font-size="124" letter-spacing="5" fill="#fff">ODEB <tspan font-weight="400">LONODJI</tspan></text><text x="563" y="258" font-family="DM Sans, Helvetica, Arial, sans-serif" font-weight="600" font-size="27" letter-spacing="6" fill="#c9d5cc">ORGANISATION POUR LE DÉVELOPPEMENT</text><text x="563" y="296" font-family="DM Sans, Helvetica, Arial, sans-serif" font-weight="600" font-size="27" letter-spacing="6" fill="#c9d5cc">ET L’ÉMERGENCE BEDJONDE</text><line x1="563" y1="336" x2="643" y2="336" stroke="#b6cf45" stroke-width="6" stroke-linecap="round"/><text x="563" y="400" font-family="Playfair Display, Georgia, serif" font-style="italic" font-size="38" fill="#fff">« Sur les traces de nos ancêtres, bâtissons notre avenir. »</text></svg>